<?xml version="1.0" encoding="utf-8"?>
<!-- Generator: Adobe Illustrator 25.4.1, SVG Export Plug-In . SVG Version: 6.00 Build 0)  -->
<svg version="1.1" id="Layer_1" xmlns="http://www.w3.org/2000/svg" xmlns:xlink="http://www.w3.org/1999/xlink" x="0px" y="0px"
	 viewBox="0 0 442 329.83" style="enable-background:new 0 0 442 329.83;" xml:space="preserve">
<style type="text/css">
	.st0{fill:#8A9EC3;}
	.st1{fill:#F7F7F7;}
	.st2{font-family:'GillSans-SemiBold';}
	.st3{font-size:11px;}
	.st4{fill:#506FA9;}
	.st5{fill:#879CC1;}
	.st6{font-size:18px;}
</style>
<path id="Rectangle_5" class="st0" d="M16,291.83h74c8.84,0,16,7.16,16,16v6c0,8.84-7.16,16-16,16H16c-8.84,0-16-7.16-16-16v-6
	C0,299,7.16,291.83,16,291.83z"/>
<path id="Rectangle_6" class="st0" d="M128,291.83h74c8.84,0,16,7.16,16,16v6c0,8.84-7.16,16-16,16h-74c-8.84,0-16-7.16-16-16v-6
	C112,299,119.16,291.83,128,291.83z"/>
<path id="Rectangle_7" class="st0" d="M240,291.83h74c8.84,0,16,7.16,16,16v6c0,8.84-7.16,16-16,16h-74c-8.84,0-16-7.16-16-16v-6
	C224,299,231.16,291.83,240,291.83z"/>
<path id="Rectangle_8" class="st0" d="M352,291.83h74c8.84,0,16,7.16,16,16v6c0,8.84-7.16,16-16,16h-74c-8.84,0-16-7.16-16-16v-6
	C336,299,343.16,291.83,352,291.83z"/>
<text transform="matrix(1 0 0 1 41 314.8339)" class="st1 st2 st3">8 OZ</text>
<text transform="matrix(1 0 0 1 150 314.8339)" class="st1 st2 st3">16 OZ</text>
<text transform="matrix(1 0 0 1 262 314.8339)" class="st1 st2 st3">24 OZ</text>
<text transform="matrix(1 0 0 1 370 314.8339)" class="st1 st2 st3">OTHER</text>
<path id="Path_1" class="st4" d="M205.39,17.87V4.3c0,0,9.46-7.21,28.73-2.97c5.25,1.83,5.66,2.97,5.66,2.97v30.89h-2.84v4.32
	c0,0,25.11,19.3,27.51,46.27s0.92,181.29,0.92,181.29c-11.66,9.21-26.22,13.98-41.07,13.47c-15.18-0.76-29.99-5-43.28-12.38
	c0,0-3.03-177.21,2.91-192.24s16.87-31.85,24.74-36.41c-0.06-3.87,0-4.32,0-4.32h-3.29L205.39,17.87z"/>
<path id="Path_2" class="st5" d="M180.26,175.45v93.07c0,0,21.64,13,44.88,12.15s38.84-11.11,40.71-13.72s0-91.51,0-91.51H180.26z"
	/>
<text transform="matrix(1 0 0 1 199 181.8339)" class="st1 st2 st6">32 OZ</text>
</svg>
